# Blender v2.78 (sub 0) OBJ File: ''
# www.blender.org
mtllib drumstick.mtl
o Cylinder_Cylinder.002
v 0.000000 0.077893 -0.194733
v 0.000000 0.077893 0.584200
v 0.038947 0.067458 -0.194733
v 0.038947 0.067458 0.584200
v 0.067458 0.038947 -0.194733
v 0.067458 0.038947 0.584200
v 0.077893 0.000000 -0.194733
v 0.077893 -0.000000 0.584200
v 0.067458 -0.038947 -0.194733
v 0.067458 -0.038947 0.584200
v 0.038947 -0.067458 -0.194733
v 0.038947 -0.067458 0.584200
v 0.000000 -0.077893 -0.194733
v 0.000000 -0.077893 0.584200
v -0.038947 -0.067458 -0.194733
v -0.038947 -0.067458 0.584200
v -0.067458 -0.038947 -0.194733
v -0.067458 -0.038947 0.584200
v -0.077893 -0.000000 -0.194733
v -0.077893 -0.000000 0.584200
v -0.067458 0.038947 -0.194733
v -0.067458 0.038947 0.584200
v -0.038947 0.067458 -0.194733
v -0.038947 0.067458 0.584200
v 0.038947 0.067458 1.338501
v 0.000000 0.077893 1.338501
v 0.067458 0.038947 1.338501
v 0.077893 -0.000000 1.338501
v 0.067458 -0.038947 1.338501
v 0.038947 -0.067458 1.338501
v 0.000000 -0.077893 1.338501
v -0.038947 -0.067458 1.338501
v -0.067458 -0.038947 1.338501
v -0.077893 -0.000000 1.338501
v -0.067458 0.038947 1.338501
v -0.038947 0.067458 1.338501
v -0.000000 0.056779 -0.973666
v 0.028389 0.049172 -0.973666
v 0.049172 0.028389 -0.973666
v 0.056779 0.000000 -0.973666
v 0.049172 -0.028389 -0.973666
v 0.028389 -0.049172 -0.973666
v 0.000000 -0.056779 -0.973666
v -0.028389 -0.049172 -0.973666
v -0.049172 -0.028389 -0.973666
v -0.056779 -0.000000 -0.973666
v -0.049172 0.028389 -0.973666
v -0.028389 0.049172 -0.973666
v 0.027267 0.047228 1.367843
v 0.000000 0.054534 1.367843
v 0.047228 0.027267 1.367843
v 0.054534 -0.000000 1.367843
v 0.047228 -0.027267 1.367843
v 0.027267 -0.047228 1.367843
v 0.000000 -0.054534 1.367843
v -0.027267 -0.047228 1.367843
v -0.047228 -0.027267 1.367843
v -0.054534 -0.000000 1.367843
v -0.047228 0.027267 1.367843
v -0.027267 0.047228 1.367843
v 0.011031 0.019105 1.377050
v 0.000000 0.022061 1.377050
v 0.019105 0.011030 1.377050
v 0.022061 -0.000000 1.377050
v 0.019105 -0.011031 1.377050
v 0.011031 -0.019105 1.377050
v 0.000000 -0.022061 1.377050
v -0.011030 -0.019105 1.377050
v -0.019105 -0.011031 1.377050
v -0.022061 -0.000000 1.377050
v -0.019105 0.011030 1.377050
v -0.011030 0.019105 1.377050
v -0.000000 0.030452 -1.440467
v 0.015226 0.026372 -1.440467
v 0.026372 0.015226 -1.440467
v 0.030452 0.000000 -1.440467
v 0.026372 -0.015226 -1.440467
v 0.015226 -0.026372 -1.440467
v 0.000000 -0.030452 -1.440467
v -0.015226 -0.026372 -1.440467
v -0.026372 -0.015226 -1.440467
v -0.030452 0.000000 -1.440467
v -0.026372 0.015226 -1.440467
v -0.015226 0.026372 -1.440467
v -0.000000 0.041451 -1.473400
v 0.020726 0.035898 -1.473400
v 0.035898 0.020726 -1.473400
v 0.041451 0.000000 -1.473400
v 0.035898 -0.020726 -1.473400
v 0.020726 -0.035898 -1.473400
v 0.000000 -0.041451 -1.473400
v -0.020726 -0.035898 -1.473400
v -0.035898 -0.020726 -1.473400
v -0.041451 0.000000 -1.473400
v -0.035898 0.020726 -1.473400
v -0.020726 0.035898 -1.473400
v 0.000000 0.036767 -1.506541
v 0.018384 0.031841 -1.506541
v 0.031841 0.018383 -1.506541
v 0.036767 0.000000 -1.506541
v 0.031841 -0.018383 -1.506541
v 0.018384 -0.031841 -1.506541
v 0.000000 -0.036767 -1.506541
v -0.018383 -0.031841 -1.506541
v -0.031841 -0.018383 -1.506541
v -0.036767 0.000000 -1.506541
v -0.031841 0.018383 -1.506541
v -0.018383 0.031841 -1.506541
v 0.000000 0.017053 -1.520855
v 0.008527 0.014769 -1.520855
v 0.014769 0.008527 -1.520855
v 0.017053 0.000000 -1.520855
v 0.014769 -0.008527 -1.520855
v 0.008527 -0.014769 -1.520855
v 0.000000 -0.017053 -1.520855
v -0.008527 -0.014769 -1.520855
v -0.014769 -0.008527 -1.520855
v -0.017053 0.000000 -1.520855
v -0.014769 0.008527 -1.520855
v -0.008527 0.014769 -1.520855
vn 0.0000 0.9999 -0.0135
vn 0.0000 1.0000 0.0000
vn 0.5000 0.8660 0.0000
vn 0.5000 0.8659 -0.0135
vn 0.8660 0.5000 0.0000
vn 0.8659 0.4999 -0.0135
vn 1.0000 0.0000 0.0000
vn 0.9999 0.0000 -0.0135
vn 0.8660 -0.5000 0.0000
vn 0.8659 -0.5000 -0.0135
vn 0.5000 -0.8660 0.0000
vn 0.5000 -0.8659 -0.0135
vn 0.0000 -1.0000 0.0000
vn 0.0000 -0.9999 -0.0135
vn -0.5000 -0.8660 0.0000
vn -0.4999 -0.8659 -0.0135
vn -0.8660 -0.5000 0.0000
vn -0.8659 -0.5000 -0.0135
vn -1.0000 0.0000 0.0000
vn -0.9999 0.0000 -0.0135
vn -0.8660 0.5000 0.0000
vn -0.8659 0.4999 -0.0135
vn 0.0000 -0.9494 0.3141
vn -0.4747 -0.8222 0.3141
vn -0.5000 0.8660 0.0000
vn -0.5000 0.8659 -0.0135
vn 0.4996 -0.8653 -0.0416
vn 0.8653 -0.4996 -0.0416
vn 0.0000 0.9494 0.3141
vn -0.4747 0.8222 0.3141
vn -0.2937 0.5087 0.8092
vn 0.0000 0.5875 0.8092
vn 0.4747 -0.8222 0.3141
vn 0.8222 -0.4747 0.3141
vn 0.9494 0.0000 0.3141
vn 0.4747 0.8222 0.3141
vn 0.8222 0.4747 0.3141
vn -0.8222 0.4747 0.3141
vn -0.9494 0.0000 0.3141
vn -0.8222 -0.4747 0.3141
vn 0.4953 -0.8578 0.1369
vn 0.8578 -0.4953 0.1369
vn 0.9991 0.0000 -0.0416
vn 0.0000 0.9991 -0.0416
vn -0.4996 0.8653 -0.0416
vn 0.4996 0.8653 -0.0416
vn 0.8653 0.4996 -0.0416
vn -0.8653 0.4996 -0.0416
vn -0.9991 0.0000 -0.0416
vn -0.8653 -0.4996 -0.0416
vn -0.4996 -0.8653 -0.0416
vn 0.0000 -0.9991 -0.0416
vn 0.2937 -0.5087 0.8092
vn 0.5087 -0.2937 0.8092
vn 0.1386 -0.0800 0.9871
vn 0.0800 -0.1386 0.9871
vn 0.2937 0.5087 0.8092
vn 0.5087 0.2937 0.8092
vn -0.5087 -0.2937 0.8092
vn -0.5875 0.0000 0.8092
vn 0.0000 -0.5875 0.8092
vn 0.5875 0.0000 0.8092
vn -0.5087 0.2937 0.8092
vn -0.2937 -0.5087 0.8092
vn 0.0800 0.1386 0.9871
vn 0.0000 0.1600 0.9871
vn -0.0800 0.1386 0.9871
vn -0.1386 0.0800 0.9871
vn -0.1600 0.0000 0.9871
vn -0.1386 -0.0800 0.9871
vn -0.0800 -0.1386 0.9871
vn 0.0000 -0.1600 0.9871
vn 0.1600 0.0000 0.9871
vn 0.1386 0.0800 0.9871
vn 0.0000 0.9906 0.1369
vn 0.4953 0.8578 0.1369
vn 0.4981 0.8627 0.0876
vn 0.0000 0.9962 0.0876
vn -0.4953 0.8578 0.1369
vn 0.8578 0.4953 0.1369
vn -0.9906 0.0000 0.1369
vn -0.8578 -0.4953 0.1369
vn 0.0000 -0.9906 0.1369
vn 0.9906 0.0000 0.1369
vn -0.8578 0.4953 0.1369
vn -0.4953 -0.8578 0.1369
vn -0.8627 0.4981 0.0876
vn -0.4981 0.8627 0.0876
vn -0.4361 0.7555 -0.4889
vn -0.7555 0.4361 -0.4889
vn -0.8627 -0.4981 0.0876
vn -0.4981 -0.8627 0.0876
vn 0.4981 -0.8627 0.0876
vn 0.8627 -0.4981 0.0876
vn 0.8627 0.4981 0.0876
vn -0.9962 0.0000 0.0876
vn 0.0000 -0.9962 0.0876
vn 0.9962 0.0000 0.0876
vn 0.8723 0.0000 -0.4889
vn 0.7555 -0.4361 -0.4889
vn 0.3065 -0.1769 -0.9353
vn 0.3539 0.0000 -0.9353
vn 0.4361 0.7555 -0.4889
vn 0.0000 0.8723 -0.4889
vn -0.7555 -0.4361 -0.4889
vn -0.4361 -0.7555 -0.4889
vn 0.4361 -0.7555 -0.4889
vn 0.7555 0.4361 -0.4889
vn -0.8723 0.0000 -0.4889
vn 0.0000 -0.8723 -0.4889
vn 0.0000 0.3539 -0.9353
vn 0.1769 0.3065 -0.9353
vn 0.3065 0.1769 -0.9353
vn 0.1769 -0.3065 -0.9353
vn 0.0000 -0.3539 -0.9353
vn -0.1769 -0.3065 -0.9353
vn -0.3065 -0.1769 -0.9353
vn -0.3539 0.0000 -0.9353
vn -0.3065 0.1769 -0.9353
vn -0.1769 0.3065 -0.9353
usemtl Material.001
s 1
f 1//1 2//2 4//3 3//4
f 3//4 4//3 6//5 5//6
f 5//6 6//5 8//7 7//8
f 7//8 8//7 10//9 9//10
f 9//10 10//9 12//11 11//12
f 11//12 12//11 14//13 13//14
f 13//14 14//13 16//15 15//16
f 15//16 16//15 18//17 17//18
f 17//18 18//17 20//19 19//20
f 19//20 20//19 22//21 21//22
f 16//15 14//13 31//23 32//24
f 21//22 22//21 24//25 23//26
f 23//26 24//25 2//2 1//1
f 9//10 11//12 42//27 41//28
f 26//29 36//30 60//31 50//32
f 14//13 12//11 30//33 31//23
f 12//11 10//9 29//34 30//33
f 10//9 8//7 28//35 29//34
f 2//2 24//25 36//30 26//29
f 4//3 2//2 26//29 25//36
f 8//7 6//5 27//37 28//35
f 24//25 22//21 35//38 36//30
f 6//5 4//3 25//36 27//37
f 22//21 20//19 34//39 35//38
f 20//19 18//17 33//40 34//39
f 18//17 16//15 32//24 33//40
f 41//28 42//27 78//41 77//42
f 7//8 9//10 41//28 40//43
f 23//26 1//1 37//44 48//45
f 1//1 3//4 38//46 37//44
f 5//6 7//8 40//43 39//47
f 21//22 23//26 48//45 47//48
f 3//4 5//6 39//47 38//46
f 19//20 21//22 47//48 46//49
f 17//18 19//20 46//49 45//50
f 15//16 17//18 45//50 44//51
f 13//14 15//16 44//51 43//52
f 11//12 13//14 43//52 42//27
f 54//53 53//54 65//55 66//56
f 27//37 25//36 49//57 51//58
f 34//39 33//40 57//59 58//60
f 31//23 30//33 54//53 55//61
f 28//35 27//37 51//58 52//62
f 35//38 34//39 58//60 59//63
f 32//24 31//23 55//61 56//64
f 29//34 28//35 52//62 53//54
f 36//30 35//38 59//63 60//31
f 25//36 26//29 50//32 49//57
f 33//40 32//24 56//64 57//59
f 30//33 29//34 53//54 54//53
f 61//65 62//66 72//67 71//68 70//69 69//70 68//71 67//72 66//56 65//55 64//73 63//74
f 50//32 60//31 72//67 62//66
f 51//58 49//57 61//65 63//74
f 58//60 57//59 69//70 70//69
f 55//61 54//53 66//56 67//72
f 52//62 51//58 63//74 64//73
f 59//63 58//60 70//69 71//68
f 56//64 55//61 67//72 68//71
f 53//54 52//62 64//73 65//55
f 60//31 59//63 71//68 72//67
f 49//57 50//32 62//66 61//65
f 57//59 56//64 68//71 69//70
f 73//75 74//76 86//77 85//78
f 48//45 37//44 73//75 84//79
f 38//46 39//47 75//80 74//76
f 45//50 46//49 82//81 81//82
f 42//27 43//52 79//83 78//41
f 39//47 40//43 76//84 75//80
f 46//49 47//48 83//85 82//81
f 43//52 44//51 80//86 79//83
f 40//43 41//28 77//42 76//84
f 47//48 48//45 84//79 83//85
f 37//44 38//46 74//76 73//75
f 44//51 45//50 81//82 80//86
f 95//87 96//88 108//89 107//90
f 80//86 81//82 93//91 92//92
f 77//42 78//41 90//93 89//94
f 84//79 73//75 85//78 96//88
f 74//76 75//80 87//95 86//77
f 81//82 82//81 94//96 93//91
f 78//41 79//83 91//97 90//93
f 75//80 76//84 88//98 87//95
f 82//81 83//85 95//87 94//96
f 79//83 80//86 92//92 91//97
f 76//84 77//42 89//94 88//98
f 83//85 84//79 96//88 95//87
f 100//99 101//100 113//101 112//102
f 85//78 86//77 98//103 97//104
f 92//92 93//91 105//105 104//106
f 89//94 90//93 102//107 101//100
f 96//88 85//78 97//104 108//89
f 86//77 87//95 99//108 98//103
f 93//91 94//96 106//109 105//105
f 90//93 91//97 103//110 102//107
f 87//95 88//98 100//99 99//108
f 94//96 95//87 107//90 106//109
f 91//97 92//92 104//106 103//110
f 88//98 89//94 101//100 100//99
f 109//111 110//112 111//113 112//102 113//101 114//114 115//115 116//116 117//117 118//118 119//119 120//120
f 107//90 108//89 120//120 119//119
f 97//104 98//103 110//112 109//111
f 104//106 105//105 117//117 116//116
f 101//100 102//107 114//114 113//101
f 108//89 97//104 109//111 120//120
f 98//103 99//108 111//113 110//112
f 105//105 106//109 118//118 117//117
f 102//107 103//110 115//115 114//114
f 99//108 100//99 112//102 111//113
f 106//109 107//90 119//119 118//118
f 103//110 104//106 116//116 115//115
